<?xml version="1.0" encoding="UTF-8" standalone="no"?>
<!-- Created with Inkscape (http://www.inkscape.org/) -->

<svg
   xmlns:dc="http://purl.org/dc/elements/1.1/"
   xmlns:cc="http://creativecommons.org/ns#"
   xmlns:rdf="http://www.w3.org/1999/02/22-rdf-syntax-ns#"
   xmlns:svg="http://www.w3.org/2000/svg"
   xmlns="http://www.w3.org/2000/svg"
   version="1.1"
   width="430.63602"
   height="480"
   viewBox="0 0 430.63602 480"
   id="Ebene_2"
   xml:space="preserve"><metadata
   id="metadata13"><rdf:RDF><cc:Work
       rdf:about=""><dc:format>image/svg+xml</dc:format><dc:type
         rdf:resource="http://purl.org/dc/dcmitype/StillImage" /><dc:title></dc:title></cc:Work></rdf:RDF></metadata><defs
   id="defs11" />





<g
   transform="matrix(2.3368668,0,0,2.3368668,-6.684334,-25.379268)"
   id="g2990"><path
     d="m 5,13 h 180 l -0.226,131.62 c 0,0 -10.865,69.503 -89.774,69.504 C 16.091,214.125 5,145.111 5,145.111 V 13 z"
     id="Außenrand"
     style="fill:#ce2d18" /><path
     d="m 30,25 h 9 v 5 h 11 v -5 h 9 v 5 h 11 v -5 h 9 v 17 h -9 v 10 h 48 V 42 h -9 V 25 h 10 v 6 h 10 v -6 h 10 v 6 h 10 v -6 h 9 v 17 h -9 l 8,91 h -43 v -29 c 0,0 -3.188,-14.375 -19.188,-14.375 -16,0 -19.813,14 -19.813,14 V 134 H 33 L 40.75,42 H 30 V 25 z"
     id="Burg"
     style="fill:#ffffff" /><path
     d="m 81,57 h 27 v 20 c 0,0 -2.584,8.333 -13.75,8.333 C 83.083,85.333 81,77 81,77 V 57 z"
     id="Innenwappen"
     style="fill:#ce2d18" /><rect
     width="23.5"
     height="8"
     x="82.75"
     y="67.5"
     id="Waagrecht"
     style="fill:#fffdfd;stroke:#ffffff;stroke-miterlimit:10" /><path
     d="m 14,153.667 c 0,0 3.775,0.662 8.5,-0.667 2.87,-0.808 22.167,-15.833 51.5,2.167 0,0 21.143,12.166 44.833,0 0,0 24,-12.334 42.334,-6.5 0,0 8.167,3.164 15.667,4.583 L 173,163 c 0,0 -21.418,-10.28 -35,-4.5 -14.103,6.002 -31.667,12.876 -41.333,12.833 -8.028,-0.036 -24.984,-6.602 -38.833,-12.535 -12.113,-5.189 -25.5,0.701 -28.333,1.868 C 26.668,161.833 17.5,163 17.5,163 L 14,153.667 z"
     id="geschwungen1"
     style="fill:#ffffff" /><path
     d="m 25.5,175.75 c 0,0 10.072,-10.775 40.322,0.475 30.25,11.25 34.428,12.275 53.928,2.775 19.5,-9.5 38.75,-10 46,-4.25 l -7.25,7.75 c 0,0 -10,-7.25 -35.5,5.5 0,0 -11.75,7 -26,7 -14.25,0 -35,-10.25 -35,-10.25 0,0 -16.5,-8 -31.5,-1.875 l -5,-7.125 z"
     id="geschwungen2"
     style="fill:#ffffff;stroke:#ffffff;stroke-miterlimit:10" /></g>
</svg>
